<svg width="50" height="50" viewBox="0 0 50 50" fill="none" xmlns="http://www.w3.org/2000/svg">
<path d="M36.3281 17.3596C32.6816 14.6309 29.188 14.7076 29.188 14.7076L28.8309 15.1155C33.166 16.4161 35.1806 18.3285 35.1806 18.3285C28.9783 14.9138 21.0783 14.9383 14.6272 18.3285C14.6272 18.3285 16.7181 16.3139 21.3084 15.0134L21.0535 14.7072C21.0535 14.7072 17.5853 14.6309 13.9134 17.3592C13.9134 17.3592 10.2412 23.9638 10.2412 32.0986C10.2412 32.0986 12.3834 35.7708 18.019 35.9493C18.019 35.9493 18.9625 34.8273 19.7275 33.8583C16.489 32.8893 15.2649 30.8747 15.2649 30.8747C17.2995 32.1479 19.3568 32.9447 21.9206 33.4504C26.0918 34.3089 31.2802 33.4262 35.1554 30.8747C35.1554 30.8747 33.8804 32.9403 30.5397 33.8838C31.3047 34.8273 32.2228 35.9238 32.2228 35.9238C37.8583 35.7453 40.0002 32.0731 40.0002 32.0989C39.9999 23.9641 36.3281 17.3596 36.3281 17.3596ZM20.3649 29.7273C18.9367 29.7273 17.7638 28.4776 17.7638 26.9222C17.8682 23.1969 22.8877 23.2083 22.9659 26.9222C22.9659 28.4776 21.8181 29.7273 20.3649 29.7273ZM29.6723 29.7273C28.2442 29.7273 27.0712 28.4776 27.0712 26.9222C27.1858 23.2042 32.1426 23.2026 32.2734 26.9222C32.2734 28.4776 31.1259 29.7273 29.6723 29.7273Z" fill="#00D2FF"/>
</svg>
