<svg width="50" height="50" viewBox="0 0 50 50" fill="none" xmlns="http://www.w3.org/2000/svg">
<path d="M37.8617 19.3604C37.8617 19.1417 37.5337 17.3921 36.7682 16.6266C35.784 15.5331 34.6905 15.4238 34.1438 15.4238H34.0344C30.6446 15.2051 25.6144 15.2051 25.5051 15.2051C25.5051 15.2051 20.3656 15.2051 16.9757 15.4238H16.8663C16.3196 15.4238 15.2261 15.5331 14.2419 16.6266C13.4764 17.5014 13.1484 19.2511 13.1484 19.4698C13.1484 19.5791 12.9297 21.5474 12.9297 23.6251V25.4841C12.9297 27.5617 13.1484 29.5301 13.1484 29.6394C13.1484 29.8581 13.4764 31.6077 14.2419 32.3732C15.1167 33.3573 16.2102 33.4667 16.8663 33.576C16.9757 33.576 17.085 33.576 17.1944 33.576C19.1627 33.7948 25.177 33.7948 25.3957 33.7948C25.3957 33.7948 30.5352 33.7948 33.9251 33.576H34.0344C34.5812 33.4667 35.6747 33.3573 36.6589 32.3732C37.4243 31.4984 37.7524 29.7488 37.7524 29.5301C37.7524 29.4207 37.9711 27.4524 37.9711 25.3747V23.5158C38.0804 21.5474 37.8617 19.4698 37.8617 19.3604ZM29.7697 24.7186L23.2087 28.2178C23.0993 28.2178 23.0993 28.3272 22.99 28.3272C22.8806 28.3272 22.7713 28.3272 22.7713 28.2178C22.6619 28.1085 22.5526 27.9991 22.5526 27.7804V20.6726C22.5526 20.4539 22.6619 20.3446 22.7713 20.2352C22.8806 20.1259 23.0993 20.1259 23.318 20.2352L29.8791 23.7345C30.0978 23.8438 30.2071 23.9532 30.2071 24.1719C30.2071 24.3906 29.9884 24.6093 29.7697 24.7186Z" fill="black"/>
</svg>
