<svg width="50" height="50" viewBox="0 0 50 50" fill="none" xmlns="http://www.w3.org/2000/svg">
<path d="M37.8598 19.3604C37.8598 19.1417 37.5317 17.3921 36.7663 16.6266C35.7821 15.5331 34.6886 15.4238 34.1418 15.4238H34.0325C30.6426 15.2051 25.6125 15.2051 25.5031 15.2051C25.5031 15.2051 20.3636 15.2051 16.9737 15.4238H16.8644C16.3176 15.4238 15.2241 15.5331 14.2399 16.6266C13.4745 17.5014 13.1464 19.2511 13.1464 19.4698C13.1464 19.5791 12.9277 21.5474 12.9277 23.6251V25.4841C12.9277 27.5617 13.1464 29.5301 13.1464 29.6394C13.1464 29.8581 13.4745 31.6077 14.2399 32.3732C15.1148 33.3573 16.2083 33.4667 16.8644 33.576C16.9737 33.576 17.0831 33.576 17.1924 33.576C19.1607 33.7948 25.175 33.7948 25.3937 33.7948C25.3937 33.7948 30.5332 33.7948 33.9231 33.576H34.0325C34.5792 33.4667 35.6727 33.3573 36.6569 32.3732C37.4224 31.4984 37.7504 29.7488 37.7504 29.5301C37.7504 29.4207 37.9691 27.4524 37.9691 25.3747V23.5158C38.0785 21.5474 37.8598 19.4698 37.8598 19.3604ZM29.7678 24.7186L23.2067 28.2178C23.0974 28.2178 23.0974 28.3272 22.988 28.3272C22.8787 28.3272 22.7693 28.3272 22.7693 28.2178C22.66 28.1085 22.5506 27.9991 22.5506 27.7804V20.6726C22.5506 20.4539 22.66 20.3446 22.7693 20.2352C22.8787 20.1259 23.0974 20.1259 23.3161 20.2352L29.8771 23.7345C30.0958 23.8438 30.2052 23.9532 30.2052 24.1719C30.2052 24.3906 29.9865 24.6093 29.7678 24.7186Z" fill="#00D2FF"/>
</svg>
