<svg width="10" height="18" viewBox="0 0 10 18" fill="none" xmlns="http://www.w3.org/2000/svg">
<path d="M5.58 17.196C5.388 17.196 5.226 17.13 5.094 16.998C4.962 16.866 4.896 16.704 4.896 16.512V14.766L5.238 15.09C4.398 15.078 3.636 14.964 2.952 14.748C2.268 14.532 1.698 14.262 1.242 13.938C1.086 13.83 0.978 13.704 0.918 13.56C0.858 13.404 0.84 13.254 0.864 13.11C0.888 12.954 0.948 12.822 1.044 12.714C1.152 12.606 1.278 12.54 1.422 12.516C1.566 12.492 1.734 12.54 1.926 12.66C2.31 12.924 2.778 13.158 3.33 13.362C3.894 13.554 4.59 13.65 5.418 13.65C6.078 13.65 6.624 13.566 7.056 13.398C7.488 13.218 7.806 12.972 8.01 12.66C8.226 12.348 8.334 11.994 8.334 11.598C8.334 11.262 8.256 10.974 8.1 10.734C7.956 10.494 7.722 10.29 7.398 10.122C7.074 9.954 6.642 9.816 6.102 9.708L4.266 9.312C3.186 9.072 2.376 8.682 1.836 8.142C1.308 7.59 1.044 6.864 1.044 5.964C1.044 5.268 1.212 4.644 1.548 4.092C1.896 3.54 2.376 3.102 2.988 2.778C3.612 2.454 4.332 2.274 5.148 2.238L4.896 2.49V0.797999C4.896 0.605999 4.962 0.443999 5.094 0.311999C5.226 0.179999 5.388 0.114 5.58 0.114C5.772 0.114 5.934 0.179999 6.066 0.311999C6.198 0.443999 6.264 0.605999 6.264 0.797999V2.49L5.976 2.238C6.54 2.25 7.134 2.37 7.758 2.598C8.382 2.814 8.916 3.12 9.36 3.516C9.492 3.624 9.576 3.75 9.612 3.894C9.66 4.038 9.66 4.176 9.612 4.308C9.576 4.44 9.504 4.548 9.396 4.632C9.3 4.716 9.174 4.764 9.018 4.776C8.874 4.776 8.712 4.716 8.532 4.596C8.136 4.308 7.698 4.08 7.218 3.912C6.75 3.744 6.186 3.66 5.526 3.66C4.662 3.66 3.972 3.87 3.456 4.29C2.952 4.698 2.7 5.238 2.7 5.91C2.7 6.438 2.856 6.858 3.168 7.17C3.492 7.47 4.014 7.698 4.734 7.854L6.606 8.268C7.758 8.508 8.61 8.892 9.162 9.42C9.714 9.936 9.99 10.632 9.99 11.508C9.99 12.192 9.816 12.792 9.468 13.308C9.132 13.824 8.658 14.232 8.046 14.532C7.446 14.832 6.75 15.012 5.958 15.072L6.264 14.748V16.512C6.264 16.704 6.198 16.866 6.066 16.998C5.946 17.13 5.784 17.196 5.58 17.196Z" fill="#00DACC"/>
</svg>
