<svg width="14" height="14" viewBox="0 0 14 14" fill="none" xmlns="http://www.w3.org/2000/svg">
<path d="M7 14C5.61553 14 4.26215 13.5895 3.11101 12.8203C1.95987 12.0511 1.06266 10.9579 0.532846 9.67878C0.00303299 8.3997 -0.13559 6.99223 0.134506 5.63437C0.404602 4.2765 1.07129 3.02922 2.05025 2.05025C3.02922 1.07129 4.2765 0.404602 5.63437 0.134506C6.99223 -0.13559 8.3997 0.00303299 9.67878 0.532846C10.9579 1.06266 12.0511 1.95987 12.8203 3.11101C13.5895 4.26215 14 5.61553 14 7C14 8.85651 13.2625 10.637 11.9497 11.9497C10.637 13.2625 8.85651 14 7 14ZM7 1.07693C5.82853 1.07693 4.68336 1.42431 3.70932 2.07514C2.73527 2.72598 1.9761 3.65104 1.52779 4.73334C1.07949 5.81564 0.962193 7.00657 1.19074 8.15553C1.41928 9.3045 1.9834 10.3599 2.81175 11.1882C3.64011 12.0166 4.6955 12.5807 5.84446 12.8093C6.99343 13.0378 8.18436 12.9205 9.26666 12.4722C10.349 12.0239 11.274 11.2647 11.9249 10.2907C12.5757 9.31664 12.9231 8.17147 12.9231 7C12.9231 5.4291 12.299 3.92255 11.1882 2.81175C10.0775 1.70096 8.5709 1.07693 7 1.07693Z" fill="#00DACC"/>
<path d="M9.96192 10.5C9.89106 10.5004 9.82081 10.4868 9.7552 10.46C9.6896 10.4332 9.62993 10.3937 9.57961 10.3438L6.61808 7.38227C6.56817 7.33195 6.52869 7.27228 6.50189 7.20668C6.4751 7.14107 6.46151 7.07082 6.46192 6.99996V2.69227C6.46192 2.54946 6.51865 2.4125 6.61963 2.31152C6.72062 2.21054 6.85758 2.15381 7.00038 2.15381C7.14319 2.15381 7.28015 2.21054 7.38113 2.31152C7.48212 2.4125 7.53885 2.54946 7.53885 2.69227V6.77919L10.3442 9.57919C10.3947 9.62925 10.4348 9.6888 10.4621 9.75442C10.4894 9.82003 10.5035 9.89041 10.5035 9.9615C10.5035 10.0326 10.4894 10.103 10.4621 10.1686C10.4348 10.2342 10.3947 10.2937 10.3442 10.3438C10.2939 10.3937 10.2342 10.4332 10.1686 10.46C10.103 10.4868 10.0328 10.5004 9.96192 10.5Z" fill="#00DACC"/>
</svg>
