<svg width="14" height="14" viewBox="0 0 14 14" fill="none" xmlns="http://www.w3.org/2000/svg">
<path d="M4.51852 6.056C4.35052 6.056 4.21852 6.012 4.12252 5.924C4.02652 5.828 3.97852 5.696 3.97852 5.528C3.97852 5.36 4.02652 5.232 4.12252 5.144C4.21852 5.048 4.35052 5 4.51852 5H9.48652C9.66252 5 9.79452 5.048 9.88252 5.144C9.97852 5.232 10.0265 5.36 10.0265 5.528C10.0265 5.696 9.97852 5.828 9.88252 5.924C9.79452 6.012 9.66252 6.056 9.48652 6.056H4.51852ZM4.51852 8.444C4.35052 8.444 4.21852 8.4 4.12252 8.312C4.02652 8.216 3.97852 8.084 3.97852 7.916C3.97852 7.748 4.02652 7.62 4.12252 7.532C4.21852 7.444 4.35052 7.4 4.51852 7.4H9.48652C9.66252 7.4 9.79452 7.444 9.88252 7.532C9.97852 7.62 10.0265 7.748 10.0265 7.916C10.0265 8.092 9.97852 8.224 9.88252 8.312C9.79452 8.4 9.66252 8.444 9.48652 8.444H4.51852Z" fill="#00DACC"/>
<path d="M7 14C5.61553 14 4.26215 13.5895 3.11101 12.8203C1.95987 12.0511 1.06266 10.9579 0.532846 9.67878C0.00303299 8.3997 -0.13559 6.99223 0.134506 5.63437C0.404602 4.2765 1.07129 3.02922 2.05025 2.05025C3.02922 1.07129 4.2765 0.404602 5.63437 0.134506C6.99223 -0.13559 8.3997 0.00303299 9.67878 0.532846C10.9579 1.06266 12.0511 1.95987 12.8203 3.11101C13.5895 4.26215 14 5.61553 14 7C14 8.85651 13.2625 10.637 11.9497 11.9497C10.637 13.2625 8.85651 14 7 14ZM7 1.07693C5.82853 1.07693 4.68336 1.42431 3.70932 2.07514C2.73527 2.72598 1.9761 3.65104 1.52779 4.73334C1.07949 5.81564 0.962193 7.00657 1.19074 8.15553C1.41928 9.3045 1.9834 10.3599 2.81175 11.1882C3.64011 12.0166 4.6955 12.5807 5.84446 12.8093C6.99343 13.0378 8.18436 12.9205 9.26666 12.4722C10.349 12.0239 11.274 11.2647 11.9249 10.2907C12.5757 9.31664 12.9231 8.17147 12.9231 7C12.9231 5.4291 12.299 3.92255 11.1882 2.81175C10.0775 1.70096 8.5709 1.07693 7 1.07693Z" fill="#00DACC"/>
</svg>
