<svg width="80" height="80" viewBox="0 0 80 80" fill="none" xmlns="http://www.w3.org/2000/svg">
<path d="M38.8668 32.7874C39.5978 32.401 40.4725 32.401 41.2035 32.7874L65.884 45.8334C67.6596 46.7719 67.6596 49.3152 65.884 50.2538L41.2035 63.2998C40.4725 63.6862 39.5978 63.6862 38.8668 63.2998L14.1863 50.2538C12.4108 49.3152 12.4108 46.7719 14.1863 45.8334L38.8668 32.7874Z" stroke="black" stroke-width="3"/>
<path d="M38.8668 13.9837C39.5978 13.5973 40.4725 13.5973 41.2035 13.9837L65.884 27.0297C67.6596 27.9682 67.6596 30.5115 65.884 31.4501L41.2035 44.4961C40.4725 44.8825 39.5978 44.8825 38.8668 44.4961L14.1863 31.4501C12.4108 30.5115 12.4108 27.9682 14.1863 27.0297L38.8668 13.9837Z" stroke="black" stroke-width="3"/>
</svg>
