<svg width="14" height="14" viewBox="0 0 14 14" fill="none" xmlns="http://www.w3.org/2000/svg">
<path d="M7 14C5.61553 14 4.26215 13.5895 3.11101 12.8203C1.95987 12.0511 1.06266 10.9579 0.532846 9.67878C0.00303299 8.3997 -0.13559 6.99223 0.134506 5.63437C0.404602 4.2765 1.07129 3.02922 2.05025 2.05025C3.02922 1.07129 4.2765 0.404602 5.63437 0.134506C6.99223 -0.13559 8.3997 0.00303299 9.67878 0.532846C10.9579 1.06266 12.0511 1.95987 12.8203 3.11101C13.5895 4.26215 14 5.61553 14 7C14 8.85651 13.2625 10.637 11.9497 11.9497C10.637 13.2625 8.85651 14 7 14ZM7 1.07693C5.82853 1.07693 4.68336 1.42431 3.70932 2.07514C2.73527 2.72598 1.9761 3.65104 1.52779 4.73334C1.07949 5.81564 0.962193 7.00657 1.19074 8.15553C1.41928 9.3045 1.9834 10.3599 2.81175 11.1882C3.64011 12.0166 4.6955 12.5807 5.84446 12.8093C6.99343 13.0378 8.18436 12.9205 9.26666 12.4722C10.349 12.0239 11.274 11.2647 11.9249 10.2907C12.5757 9.31664 12.9231 8.17147 12.9231 7C12.9231 5.4291 12.299 3.92255 11.1882 2.81175C10.0775 1.70096 8.5709 1.07693 7 1.07693Z" fill="#00DACC"/>
<path d="M9.96094 10.5C9.89008 10.5004 9.81983 10.4868 9.75423 10.46C9.68862 10.4332 9.62895 10.3937 9.57864 10.3438L6.6171 7.38227C6.56719 7.33195 6.52771 7.27228 6.50092 7.20668C6.47412 7.14107 6.46054 7.07082 6.46095 6.99996V2.69227C6.46095 2.54946 6.51768 2.4125 6.61866 2.31152C6.71964 2.21054 6.8566 2.15381 6.99941 2.15381C7.14222 2.15381 7.27918 2.21054 7.38016 2.31152C7.48114 2.4125 7.53787 2.54946 7.53787 2.69227V6.77919L10.3433 9.57919C10.3937 9.62925 10.4338 9.6888 10.4611 9.75442C10.4885 9.82003 10.5025 9.89041 10.5025 9.9615C10.5025 10.0326 10.4885 10.103 10.4611 10.1686C10.4338 10.2342 10.3937 10.2937 10.3433 10.3438C10.2929 10.3937 10.2333 10.4332 10.1677 10.46C10.1021 10.4868 10.0318 10.5004 9.96094 10.5Z" fill="#00DACC"/>
</svg>
