<svg width="80" height="80" viewBox="0 0 80 80" fill="none" xmlns="http://www.w3.org/2000/svg">
<rect x="9" y="18" width="61" height="44" rx="5" stroke="black" stroke-width="3"/>
<path d="M9 31H70" stroke="black" stroke-width="3"/>
<path d="M22 15L22 21" stroke="black" stroke-width="3" stroke-linecap="round"/>
<path d="M57 15L57 21" stroke="black" stroke-width="3" stroke-linecap="round"/>
<path d="M57.6359 37.4836C58.0216 36.8213 58.9784 36.8213 59.3641 37.4836L60.7028 39.782C60.8441 40.0246 61.0809 40.1966 61.3553 40.2561L63.9549 40.819C64.704 40.9812 64.9996 41.8911 64.489 42.4626L62.7167 44.4461C62.5297 44.6554 62.4392 44.9338 62.4675 45.2131L62.7354 47.8595C62.8126 48.622 62.0386 49.1843 61.3373 48.8753L58.9032 47.8027C58.6463 47.6895 58.3537 47.6895 58.0968 47.8027L55.6627 48.8753C54.9614 49.1843 54.1874 48.622 54.2646 47.8595L54.5325 45.2131C54.5608 44.9338 54.4703 44.6554 54.2833 44.4461L52.511 42.4626C52.0004 41.8911 52.296 40.9812 53.0451 40.819L55.6447 40.2561C55.9191 40.1966 56.1559 40.0246 56.2972 39.782L57.6359 37.4836Z" fill="black"/>
</svg>
